<svg width="24" height="24" viewBox="0 0 24 24" fill="none" xmlns="http://www.w3.org/2000/svg">
<path fill-rule="evenodd" clip-rule="evenodd" d="M16.9496 12.7068C16.5591 13.0973 16.5591 13.7305 16.9496 14.121C17.3401 14.5115 17.9731 14.5115 18.3636 14.1212L18.3638 14.1214L19.0709 13.4142C21.5079 10.9772 21.4082 7.26627 19.0709 4.92896C16.7413 2.59937 13.0307 2.48385 10.5856 4.92896L9.87897 5.63558L9.87855 5.63599L9.87848 5.63607C9.48803 6.0266 9.48805 6.65971 9.87855 7.05021C10.2691 7.44073 10.9022 7.44073 11.2928 7.05021L13.6793 8.90642L8.46434 14.1213C8.07381 14.5119 8.07381 15.145 8.46434 15.5356C8.85486 15.9261 9.48803 15.9261 9.87855 15.5356L15.2702 10.1439L17.6566 12L16.9642 12.6925L16.9496 12.7068ZM15.2705 10.1436L15.2702 10.1439L13.6793 8.90642L13.6797 8.90597L15.2705 10.1436ZM15.2705 10.1436L15.5354 9.8787C15.9259 9.48818 15.9259 8.85501 15.5354 8.46449C15.1449 8.07397 14.5117 8.07397 14.1212 8.46449L13.6797 8.90597L11.2935 7.04949L11.9998 6.34318C13.6387 4.70425 16.0827 4.76925 17.6566 6.34318C19.2348 7.92133 19.2909 10.3657 17.6566 12L15.2705 10.1436ZM7.03407 11.3085L6.34298 11.9996C4.70869 13.6339 4.76482 16.0783 6.34298 17.6565C7.9169 19.2304 10.3609 19.2954 11.9998 17.6565L12.7069 16.9494L12.707 16.9494C13.0975 16.5589 13.7306 16.559 14.1211 16.9495C14.5117 17.34 14.5117 17.9732 14.1211 18.3637C14.119 18.3658 14.1168 18.368 14.1146 18.3701L13.414 19.0707C10.9689 21.5158 7.25836 21.4003 4.92876 19.0707C2.59145 16.7334 2.49172 13.0225 4.92876 10.5854L5.63587 9.87833L5.63604 9.8785C6.02658 9.48814 6.65962 9.4882 7.05009 9.87867C7.44061 10.2692 7.44061 10.9024 7.05009 11.2929L7.03407 11.3085Z" fill="black"/>
</svg>
