<svg width="24" height="24" viewBox="0 0 24 24" fill="none" xmlns="http://www.w3.org/2000/svg">
<path fill-rule="evenodd" clip-rule="evenodd" d="M15 9C15 10.6569 13.6569 12 12 12C10.3431 12 9 10.6569 9 9C9 7.34315 10.3431 6 12 6C13.6569 6 15 7.34315 15 9ZM15.3344 12.7259C16.3567 11.8104 17 10.4803 17 9C17 6.23858 14.7614 4 12 4C9.23857 4 7 6.23858 7 9C7 10.4803 7.6433 11.8104 8.66559 12.7259C5.91213 13.9901 4 16.7718 4 20C4 20.5523 4.44772 21 5 21C5.55228 21 6 20.5523 6 20C6 16.6863 8.68629 14 12 14C15.3137 14 18 16.6863 18 20C18 20.5523 18.4477 21 19 21C19.5523 21 20 20.5523 20 20C20 19.9991 20 19.9981 20 19.9972V19.9921C19.9969 16.7672 18.0856 13.9891 15.3344 12.7259Z" fill="black"/>
</svg>
